<svg xmlns="http://www.w3.org/2000/svg" xmlns:xlink="http://www.w3.org/1999/xlink" preserveAspectRatio="xMidYMid" width="85.063" height="67" viewBox="0 0 85.063 67">
  <defs>
    <style>
      .cls-1 {
        fill: #424242;
      }

      .cls-1, .cls-2, .cls-3 {
        fill-rule: evenodd;
      }

      .cls-2 {
        fill: #e14f22;
      }

      .cls-3 {
        fill: #fff;
      }
    </style>
  </defs>
  <g>
    <path d="M85.073,66.863 L83.280,66.863 L81.838,64.256 L80.694,64.256 L80.694,66.863 L79.132,66.863 L79.132,59.525 L82.565,59.525 C84.094,59.525 85.029,60.526 85.029,61.891 C85.029,63.189 84.215,63.882 83.423,64.069 L85.073,66.863 ZM83.434,61.891 C83.434,61.274 82.961,60.900 82.334,60.900 L80.694,60.900 L80.694,62.881 L82.334,62.881 C82.961,62.881 83.434,62.507 83.434,61.891 ZM67.318,59.525 L68.880,59.525 L68.880,66.863 L67.318,66.863 L67.318,59.525 ZM52.061,62.078 L52.061,66.863 L50.499,66.863 L50.499,59.525 L52.105,59.525 L55.505,64.135 L55.505,59.525 L57.067,59.525 L57.067,66.863 L55.560,66.863 L52.061,62.078 ZM35.242,62.078 L35.242,66.863 L33.680,66.863 L33.680,59.525 L35.286,59.525 L38.686,64.135 L38.686,59.525 L40.248,59.525 L40.248,66.863 L38.741,66.863 L35.242,62.078 ZM20.129,66.995 C17.895,66.995 16.817,65.741 16.817,63.937 L16.817,59.525 L18.401,59.525 L18.401,63.882 C18.401,64.905 18.995,65.609 20.129,65.609 C21.262,65.609 21.845,64.905 21.845,63.882 L21.845,59.525 L23.440,59.525 L23.440,63.926 C23.440,65.752 22.362,66.995 20.129,66.995 ZM1.560,62.078 L1.560,66.863 L-0.002,66.863 L-0.002,59.525 L1.604,59.525 L5.004,64.135 L5.004,59.525 L6.566,59.525 L6.566,66.863 L5.059,66.863 L1.560,62.078 Z" class="cls-1"/>
    <path d="M62.719,40.000 L22.719,40.000 L22.719,0.000 L62.719,0.000 L62.719,40.000 Z" class="cls-2"/>
    <path d="M45.719,17.000 L45.719,19.000 L39.535,19.000 C39.122,17.838 38.023,17.000 36.719,17.000 C35.062,17.000 33.719,18.343 33.719,20.000 C33.719,21.657 35.062,23.000 36.719,23.000 C38.023,23.000 39.122,22.162 39.535,21.000 L45.719,21.000 L45.719,23.000 L51.719,23.000 L51.719,17.000 L45.719,17.000 ZM36.719,22.000 C35.614,22.000 34.719,21.105 34.719,20.000 C34.719,18.895 35.614,18.000 36.719,18.000 C37.824,18.000 38.719,18.895 38.719,20.000 C38.719,21.105 37.824,22.000 36.719,22.000 Z" class="cls-3"/>
  </g>
</svg>
